<svg xmlns="http://www.w3.org/2000/svg" version="1.1" xmlns:xlink="http://www.w3.org/1999/xlink" width="512" height="512" x="0" y="0" viewBox="0 0 56 56" style="enable-background:new 0 0 512 512" xml:space="preserve" class=""><g><g fill="#000" fill-rule="nonzero"><path d="M37.52 22.62c-.393.38-1.017.38-1.41 0l-.52-.51-1.41 1.41.51.52a3.006 3.006 0 0 0 4.25 0l1.14-1.14-1.59-1.24zM47.32 16.75c.348.239.709.46 1.08.66l.44-.44c.11-.113.192-.25.24-.4.08-.24.67-2.38-2.15-5.67l-1.45 1.39c1.56 1.86 1.71 3.07 1.71 3.49l-.52.52c.2.15.42.3.65.45zM28.041 12.465l-4.675 4.518.653.65c.021.018.047.025.067.045l5.656 5.656v.008l.7.7 1.477-1.427c-1.331-1.588-4.086-5.474-3.878-10.15zM23.87 25.947l-1.198-1.197-1.198-1.199-.953 1.657 1.634 1.726zM39.641 9.193a1 1 0 0 0 0-1.414 1 1 0 1 0-1.413 1.414 1.022 1.022 0 0 0 1.413 0zM21.96 21.214l1.413-1.414 4.242 4.242-1.414 1.414z" fill="#da5d71" opacity="1" data-original="#000000" class=""></path><path d="M47.712 7.359a1 1 0 0 0-.005-1.409l-.8-.8L45.2 6.453a1.001 1.001 0 0 1-1.213-1.593l1.5-1.135L42.051.293a1 1 0 0 0-1.415 0L30.487 10.1c-1.611 4.887 1.5 9.425 2.884 11.117zm-10.9-.995a3.073 3.073 0 0 1 4.243 0 3 3 0 1 1-4.244 0zM49.146 20.009a17.235 17.235 0 0 1-2.916-1.58 16.976 16.976 0 0 1-3.716-3.265l-4.07 3.936 4.92 3.823 1.145-.371a1.924 1.924 0 0 1 1.791.273l3.931 2.8a2.012 2.012 0 0 1 .727 2.261l-.266.828.975.988L56 25.363a18.375 18.375 0 0 0-6.854-5.354zM0 34h2v4H0zM25 41a3 3 0 0 1-6 0v-2a1 1 0 0 0-2 0 3 3 0 0 1-6 0v-6H4v4c0 .408.211 10 13 10s13-9.595 13-10v-4h-5zM32 34h2v4h-2z" fill="#da5d71" opacity="1" data-original="#000000" class=""></path><path d="M17 49c-7.34 0-11.086-2.911-13-5.865V55a1 1 0 0 0 1 1h24a1 1 0 0 0 1-1V43.135C28.086 46.089 24.34 49 17 49zM14 40a1 1 0 0 0 1-1 3 3 0 0 1 6 0v2a1 1 0 0 0 2 0v-8h-6.74l4.24-4.671-1.481-1.345L13.557 33H13v6a1 1 0 0 0 1 1z" fill="#da5d71" opacity="1" data-original="#000000" class=""></path></g></g></svg>